<svg width="24" height="24" viewBox="0 0 24 24" fill="none" xmlns="http://www.w3.org/2000/svg">
<path d="M20.0004 3.9996H3.9996C2.9004 3.9996 2.01 4.8996 2.01 6L2.0004 18C2.0004 19.1004 2.9004 20.0004 3.9996 20.0004H20.0004C21.0996 20.0004 21.9996 19.1004 21.9996 18V6C21.9996 4.8996 21.0996 3.9996 20.0004 3.9996ZM19.5996 8.25L12.5304 12.6708C12.3709 12.769 12.1873 12.821 12 12.821C11.8127 12.821 11.6291 12.769 11.4696 12.6708L4.4004 8.25C4.30152 8.19301 4.21514 8.11668 4.14641 8.02557C4.07768 7.93447 4.02802 7.83044 4.00037 7.71972C3.97273 7.60899 3.96768 7.49383 3.98552 7.38111C4.00336 7.26839 4.04373 7.16042 4.10421 7.06364C4.1647 6.96686 4.24406 6.88326 4.33757 6.81783C4.43107 6.7524 4.5368 6.70648 4.64844 6.6828C4.76009 6.65913 4.87535 6.6582 4.98737 6.68005C5.09938 6.7019 5.20584 6.7461 5.3004 6.81L12 11.0004L18.6996 6.81C18.7942 6.7461 18.9006 6.7019 19.0126 6.68005C19.1246 6.6582 19.2399 6.65913 19.3515 6.6828C19.4632 6.70648 19.5689 6.7524 19.6624 6.81783C19.7559 6.88326 19.8353 6.96686 19.8958 7.06364C19.9563 7.16042 19.9966 7.26839 20.0145 7.38111C20.0323 7.49383 20.0273 7.60899 19.9996 7.71972C19.972 7.83044 19.9223 7.93447 19.8536 8.02557C19.7849 8.11668 19.6985 8.19301 19.5996 8.25V8.25Z" fill="#99E0FF"/>
</svg>
