<svg width="80" height="80" viewBox="0 0 80 80" fill="none" xmlns="http://www.w3.org/2000/svg">
<path d="M48.3333 41.9667L51.3333 54.9L40 48.0667L28.6667 54.9L31.6667 42L21.6667 33.3667L34.8667 32.2334L40 20.0667L45.1333 32.2L58.3333 33.3334L48.3333 41.9667ZM40 10.6334L63.3333 21V36.6667C63.3333 51.7333 53.4 65.6333 40 69.7667C26.6 65.6333 16.6667 51.7333 16.6667 36.6667V21L40 10.6334ZM40 3.33337L10 16.6667V36.6667C10 55.1667 22.8 72.4667 40 76.6667C57.2 72.4667 70 55.1667 70 36.6667V16.6667L40 3.33337Z" fill="#F4B875"/>
</svg>
