<svg width="24" height="24" viewBox="0 0 24 24" fill="none" xmlns="http://www.w3.org/2000/svg">
<path d="M19.23 15.2604L16.6896 14.97C16.3911 14.935 16.0885 14.9681 15.8046 15.0669C15.5207 15.1656 15.2628 15.3274 15.0504 15.54L13.2096 17.3796C10.3712 15.9359 8.06414 13.6288 6.6204 10.7904L8.4696 8.94002C8.9004 8.51042 9.1104 7.91042 9.0396 7.29962L8.7504 4.77962C8.69356 4.29171 8.4593 3.84173 8.0922 3.51535C7.72511 3.18897 7.25081 3.00897 6.7596 3.00961H5.0304C3.9 3.00961 2.9604 3.95041 3.03 5.07961C3.5604 13.62 10.3896 20.4396 18.9204 20.97C20.0496 21.0396 20.9904 20.1 20.9904 18.9696V17.2404C20.9929 16.7514 20.8145 16.2786 20.4895 15.9131C20.1646 15.5477 19.716 15.3152 19.23 15.2604Z" fill="#99E0FF"/>
</svg>
