<svg width="139" height="32" viewBox="0 0 139 32" fill="none" xmlns="http://www.w3.org/2000/svg">
<path d="M34.4893 3.01129V3.8143C33.6328 3.84107 32.9904 3.94814 32.5621 4.13551C32.1338 4.29611 31.8394 4.61732 31.6788 5.09912C31.545 5.55416 31.478 6.27687 31.478 7.26725V27.1819C31.478 28.1455 31.545 28.8683 31.6788 29.3501C31.8394 29.8319 32.1338 30.1531 32.5621 30.3137C32.9904 30.4743 33.6328 30.5813 34.4893 30.6349V31.4379C33.7399 31.3844 32.7896 31.3576 31.6386 31.3576C30.5144 31.3308 29.3634 31.3174 28.1857 31.3174C26.9009 31.3174 25.6964 31.3308 24.5721 31.3576C23.4479 31.3576 22.5378 31.3844 21.8419 31.4379V30.6349C22.752 30.5813 23.4345 30.4743 23.8896 30.3137C24.3714 30.1531 24.6926 29.8319 24.8532 29.3501C25.0138 28.8683 25.0941 28.1455 25.0941 27.1819V5.46048H25.3752L15.4178 31.478H14.7754L3.93476 5.62108V24.8532C3.93476 26.3254 4.01506 27.463 4.17566 28.266C4.33626 29.0422 4.68423 29.6043 5.21957 29.9523C5.78168 30.2735 6.65161 30.501 7.82936 30.6349V31.4379C7.32079 31.3844 6.65161 31.3576 5.82183 31.3576C4.99205 31.3308 4.21581 31.3174 3.4931 31.3174C2.87746 31.3174 2.24843 31.3308 1.60602 31.3576C0.963614 31.3576 0.428273 31.3844 0 31.4379V30.6349C0.856545 30.501 1.49895 30.2735 1.92723 29.9523C2.3555 29.6311 2.63655 29.1092 2.77039 28.3864C2.93099 27.637 3.01129 26.6198 3.01129 25.335V7.26725C3.01129 6.27687 2.93099 5.55416 2.77039 5.09912C2.63655 4.61732 2.34212 4.29611 1.88708 4.13551C1.4588 3.94814 0.829778 3.84107 0 3.8143V3.01129C0.428273 3.03806 0.963614 3.06483 1.60602 3.09159C2.24843 3.11836 2.87746 3.13174 3.4931 3.13174C4.64408 3.13174 5.7683 3.11836 6.86575 3.09159C7.98996 3.06483 8.98034 3.03806 9.83689 3.01129L18.2685 23.3676L17.2647 24.2911L25.335 3.13174C25.79 3.13174 26.2585 3.13174 26.7403 3.13174C27.2221 3.13174 27.7039 3.13174 28.1857 3.13174C29.3634 3.13174 30.5144 3.11836 31.6386 3.09159C32.7896 3.06483 33.7399 3.03806 34.4893 3.01129Z" fill="black"/>
<path d="M44.4827 10.1179C45.607 10.1179 46.584 10.2652 47.4137 10.5596C48.2703 10.8273 48.8859 11.0949 49.2607 11.3626C50.1707 11.9783 50.7329 11.5767 50.947 10.1581H51.7901C51.7366 10.9076 51.6965 11.831 51.6697 12.9285C51.6429 13.9992 51.6295 15.4312 51.6295 17.2246H50.7864C50.6525 16.2342 50.3983 15.2572 50.0235 14.2936C49.6488 13.33 49.1001 12.5404 48.3773 11.9247C47.6814 11.3091 46.7713 11.0013 45.6471 11.0013C44.8709 11.0013 44.2151 11.2288 43.6797 11.6838C43.1444 12.1121 42.8767 12.7411 42.8767 13.5709C42.8767 14.3739 43.1176 15.0832 43.5994 15.6989C44.0812 16.2877 44.6969 16.8632 45.4464 17.4253C46.2226 17.9607 47.0256 18.5362 47.8554 19.1518C48.7387 19.821 49.5417 20.4902 50.2644 21.1593C50.9871 21.8018 51.5626 22.5111 51.9909 23.2873C52.4192 24.0636 52.6333 24.987 52.6333 26.0577C52.6333 27.2622 52.2853 28.3195 51.5894 29.2296C50.8935 30.1129 49.97 30.7955 48.819 31.2773C47.6948 31.7591 46.4367 32 45.0449 32C44.2418 32 43.5191 31.9197 42.8767 31.7591C42.2611 31.5985 41.7257 31.3977 41.2707 31.1568C40.9227 30.9962 40.5881 30.849 40.2669 30.7152C39.9725 30.5546 39.6914 30.4207 39.4238 30.3137C39.1561 30.2334 38.9152 30.3271 38.7011 30.5947C38.5137 30.8624 38.3665 31.2371 38.2594 31.7189H37.4162C37.4698 30.8624 37.5099 29.8185 37.5367 28.5872C37.5635 27.3559 37.5768 25.7231 37.5768 23.6888H38.42C38.5806 25.1343 38.875 26.4191 39.3033 27.5433C39.7316 28.6407 40.3071 29.5107 41.0298 30.1531C41.7793 30.7687 42.7161 31.0765 43.8403 31.0765C44.2954 31.0765 44.737 30.9829 45.1653 30.7955C45.5936 30.6081 45.9416 30.3003 46.2092 29.872C46.5037 29.4437 46.6509 28.895 46.6509 28.2258C46.6509 27.0481 46.2628 26.0711 45.4865 25.2949C44.737 24.5186 43.7734 23.6754 42.5957 22.7654C41.7391 22.0694 40.9227 21.3869 40.1465 20.7177C39.397 20.0217 38.7814 19.2723 38.2996 18.4693C37.8178 17.6395 37.5768 16.7026 37.5768 15.6587C37.5768 14.4542 37.8981 13.4371 38.5405 12.6073C39.1829 11.7775 40.026 11.1619 41.0699 10.7604C42.1406 10.3321 43.2782 10.1179 44.4827 10.1179Z" fill="black"/>
<path d="M63.0289 10.1179C64.1531 10.1179 65.1301 10.2652 65.9598 10.5596C66.8164 10.8273 67.432 11.0949 67.8068 11.3626C68.7169 11.9783 69.279 11.5767 69.4931 10.1581H70.3363C70.2827 10.9076 70.2426 11.831 70.2158 12.9285C70.189 13.9992 70.1757 15.4312 70.1757 17.2246H69.3325C69.1987 16.2342 68.9444 15.2572 68.5696 14.2936C68.1949 13.33 67.6462 12.5404 66.9235 11.9247C66.2275 11.3091 65.3174 11.0013 64.1932 11.0013C63.417 11.0013 62.7612 11.2288 62.2258 11.6838C61.6905 12.1121 61.4228 12.7411 61.4228 13.5709C61.4228 14.3739 61.6637 15.0832 62.1455 15.6989C62.6273 16.2877 63.243 16.8632 63.9925 17.4253C64.7687 17.9607 65.5717 18.5362 66.4015 19.1518C67.2848 19.821 68.0878 20.4902 68.8105 21.1593C69.5332 21.8018 70.1087 22.5111 70.537 23.2873C70.9653 24.0636 71.1794 24.987 71.1794 26.0577C71.1794 27.2622 70.8314 28.3195 70.1355 29.2296C69.4396 30.1129 68.5161 30.7955 67.3651 31.2773C66.2409 31.7591 64.9828 32 63.591 32C62.7879 32 62.0652 31.9197 61.4228 31.7591C60.8072 31.5985 60.2719 31.3977 59.8168 31.1568C59.4688 30.9962 59.1343 30.849 58.813 30.7152C58.5186 30.5546 58.2376 30.4207 57.9699 30.3137C57.7022 30.2334 57.4613 30.3271 57.2472 30.5947C57.0598 30.8624 56.9126 31.2371 56.8055 31.7189H55.9624C56.0159 30.8624 56.056 29.8185 56.0828 28.5872C56.1096 27.3559 56.123 25.7231 56.123 23.6888H56.9661C57.1267 25.1343 57.4212 26.4191 57.8494 27.5433C58.2777 28.6407 58.8532 29.5107 59.5759 30.1531C60.3254 30.7687 61.2622 31.0765 62.3864 31.0765C62.8415 31.0765 63.2831 30.9829 63.7114 30.7955C64.1397 30.6081 64.4877 30.3003 64.7553 29.872C65.0498 29.4437 65.197 28.895 65.197 28.2258C65.197 27.0481 64.8089 26.0711 64.0326 25.2949C63.2831 24.5186 62.3195 23.6754 61.1418 22.7654C60.2852 22.0694 59.4688 21.3869 58.6926 20.7177C57.9431 20.0217 57.3275 19.2723 56.8457 18.4693C56.3639 17.6395 56.123 16.7026 56.123 15.6587C56.123 14.4542 56.4442 13.4371 57.0866 12.6073C57.729 11.7775 58.5721 11.1619 59.6161 10.7604C60.6867 10.3321 61.8243 10.1179 63.0289 10.1179Z" fill="black"/>
<path d="M78.8447 0.321205C79.9689 0.321205 80.8522 0.602259 81.4947 1.16437C82.1638 1.69971 82.4984 2.44919 82.4984 3.4128C82.4984 4.37641 82.1638 5.13927 81.4947 5.70138C80.8522 6.23672 79.9689 6.50439 78.8447 6.50439C77.7205 6.50439 76.8238 6.23672 76.1546 5.70138C75.5122 5.13927 75.191 4.37641 75.191 3.4128C75.191 2.44919 75.5122 1.69971 76.1546 1.16437C76.8238 0.602259 77.7205 0.321205 78.8447 0.321205ZM81.9765 10.2384V27.7039C81.9765 28.8281 82.1638 29.591 82.5386 29.9925C82.9401 30.394 83.6093 30.5947 84.5461 30.5947V31.4379C84.0643 31.4111 83.3148 31.3844 82.2977 31.3576C81.2805 31.3041 80.25 31.2773 79.2061 31.2773C78.1622 31.2773 77.1049 31.3041 76.0342 31.3576C74.9635 31.3844 74.1605 31.4111 73.6252 31.4379V30.5947C74.562 30.5947 75.2178 30.394 75.5925 29.9925C75.994 29.591 76.1948 28.8281 76.1948 27.7039V15.0565C76.1948 13.8519 76.0074 12.9686 75.6327 12.4065C75.2847 11.8176 74.6155 11.5232 73.6252 11.5232V10.6801C74.4817 10.7604 75.3115 10.8005 76.1145 10.8005C77.2387 10.8005 78.2826 10.7604 79.2462 10.6801C80.2366 10.573 81.1467 10.4258 81.9765 10.2384Z" fill="black"/>
<path d="M94.4806 0V27.7039C94.4806 28.8281 94.6679 29.591 95.0427 29.9925C95.4442 30.394 96.1133 30.5947 97.0502 30.5947V31.4379C96.5416 31.4111 95.7787 31.3844 94.7616 31.3576C93.7445 31.3041 92.7139 31.2773 91.67 31.2773C90.6261 31.2773 89.5688 31.3041 88.4981 31.3576C87.4542 31.3844 86.6646 31.4111 86.1292 31.4379V30.5947C87.0661 30.5947 87.7219 30.394 88.0966 29.9925C88.4981 29.591 88.6989 28.8281 88.6989 27.7039V4.81807C88.6989 3.61355 88.5115 2.73024 88.1368 2.16813C87.7888 1.57926 87.1196 1.28482 86.1292 1.28482V0.441658C86.9858 0.521958 87.8156 0.562108 88.6186 0.562108C89.716 0.562108 90.7599 0.521958 91.7503 0.441658C92.7407 0.334589 93.6508 0.18737 94.4806 0Z" fill="black"/>
<path d="M118.151 10.6801V11.4831C117.643 11.6169 117.161 11.9381 116.706 12.4467C116.251 12.9285 115.809 13.7583 115.381 14.936L109.519 31.5182C109.091 31.4914 108.649 31.478 108.194 31.478C107.766 31.478 107.337 31.4914 106.909 31.5182L99.7622 13.7716C99.334 12.7277 98.9057 12.0987 98.4774 11.8846C98.0759 11.6437 97.7279 11.5232 97.4335 11.5232V10.6801C98.29 10.7336 99.1734 10.7871 100.083 10.8407C101.02 10.8674 102.037 10.8808 103.135 10.8808C103.965 10.8808 104.835 10.8674 105.745 10.8407C106.682 10.7871 107.551 10.7336 108.354 10.6801V11.5232C107.792 11.5232 107.284 11.55 106.829 11.6035C106.4 11.657 106.106 11.831 105.945 12.1255C105.785 12.4199 105.812 12.9419 106.026 13.6913L110.723 26.138L110.322 26.7001L113.494 17.9072C114.002 16.4617 114.216 15.284 114.136 14.3739C114.056 13.4371 113.761 12.7411 113.253 12.2861C112.744 11.8043 112.062 11.5366 111.205 11.4831V10.6801C111.607 10.7068 112.035 10.7336 112.49 10.7604C112.972 10.7604 113.427 10.7737 113.855 10.8005C114.31 10.8005 114.712 10.8005 115.06 10.8005C115.595 10.8005 116.157 10.7871 116.746 10.7604C117.335 10.7336 117.803 10.7068 118.151 10.6801Z" fill="black"/>
<path d="M124.218 31.7189C123.013 31.7189 122.009 31.4914 121.206 31.0364C120.403 30.5813 119.814 29.9791 119.44 29.2296C119.065 28.4534 118.878 27.6102 118.878 26.7001C118.878 25.5491 119.132 24.6123 119.641 23.8896C120.176 23.1669 120.858 22.578 121.688 22.123C122.518 21.6679 123.388 21.2932 124.298 20.9987C125.235 20.7043 126.118 20.4233 126.948 20.1556C127.804 19.8611 128.487 19.5266 128.996 19.1518C129.531 18.7503 129.799 18.2417 129.799 17.6261V14.4944C129.799 13.7984 129.678 13.1828 129.437 12.6474C129.223 12.0853 128.875 11.657 128.393 11.3626C127.938 11.0682 127.336 10.921 126.587 10.921C126.051 10.921 125.516 11.0013 124.981 11.1619C124.445 11.2957 124.004 11.5366 123.656 11.8846C124.405 12.1522 124.981 12.5671 125.382 13.1292C125.81 13.6646 126.024 14.2802 126.024 14.9762C126.024 15.8862 125.703 16.609 125.061 17.1443C124.445 17.6796 123.709 17.9473 122.853 17.9473C121.889 17.9473 121.153 17.6529 120.644 17.064C120.162 16.4483 119.922 15.7123 119.922 14.8557C119.922 14.0795 120.109 13.4371 120.484 12.9285C120.885 12.4199 121.434 11.9381 122.13 11.4831C122.879 11.0548 123.776 10.7202 124.82 10.4793C125.891 10.2384 127.042 10.1179 128.273 10.1179C129.504 10.1179 130.615 10.2518 131.605 10.5194C132.596 10.7604 133.426 11.2154 134.095 11.8846C134.71 12.5002 135.112 13.2631 135.299 14.1732C135.487 15.0565 135.58 16.1807 135.58 17.5458V28.4668C135.58 29.1359 135.647 29.6044 135.781 29.872C135.915 30.1129 136.142 30.2334 136.464 30.2334C136.705 30.2334 136.932 30.1665 137.146 30.0326C137.387 29.8988 137.641 29.7382 137.909 29.5508L138.311 30.2334C137.748 30.7152 137.093 31.0899 136.343 31.3576C135.62 31.5985 134.804 31.7189 133.894 31.7189C132.904 31.7189 132.114 31.5851 131.525 31.3174C130.936 31.023 130.508 30.6349 130.24 30.1531C129.999 29.6713 129.879 29.1092 129.879 28.4668C129.236 29.4839 128.46 30.2869 127.55 30.8758C126.64 31.4379 125.529 31.7189 124.218 31.7189ZM127.068 29.1493C127.604 29.1493 128.086 29.0289 128.514 28.788C128.969 28.5203 129.397 28.092 129.799 27.5031V19.2723C129.558 19.6738 129.223 20.0351 128.795 20.3563C128.367 20.6775 127.912 21.0121 127.43 21.3601C126.948 21.6813 126.479 22.0427 126.024 22.4442C125.596 22.8457 125.248 23.3409 124.981 23.9297C124.713 24.5186 124.579 25.2279 124.579 26.0577C124.579 27.1016 124.807 27.8779 125.262 28.3864C125.717 28.895 126.319 29.1493 127.068 29.1493Z" fill="black"/>
</svg>
